<svg width="56" height="56" viewBox="0 0 56 56" fill="none" xmlns="http://www.w3.org/2000/svg">
<path d="M9.09822 38.7451C9.43613 38.4072 9.90075 38.2101 10.3935 38.2101H55.082C55.8986 38.2101 56.3069 39.1956 55.7297 39.7729L46.9018 48.6008C46.5639 48.9387 46.0993 49.1358 45.6065 49.1358H0.918008C0.101395 49.1358 -0.306912 48.1502 0.270349 47.573L9.09822 38.7451Z" fill="url(#paint0_linear_514_9086)"/>
<path d="M9.09822 5.78502C9.45021 5.44711 9.91483 5.25 10.3935 5.25L55.082 5.25C55.8986 5.25 56.3069 6.23557 55.7297 6.81283L46.9018 15.6407C46.5639 15.9786 46.0993 16.1757 45.6065 16.1757H0.918008C0.101395 16.1757 -0.306912 15.1902 0.270349 14.6129L9.09822 5.78502Z" fill="url(#paint1_linear_514_9086)"/>
<path d="M46.9018 22.1596C46.5639 21.8217 46.0993 21.6246 45.6065 21.6246H0.918008C0.101395 21.6246 -0.306912 22.6101 0.270349 23.1874L9.09822 32.0153C9.43613 32.3532 9.90075 32.5503 10.3935 32.5503H55.082C55.8986 32.5503 56.3069 31.5647 55.7297 30.9875L46.9018 22.1596Z" fill="url(#paint2_linear_514_9086)"/>
<defs>
<linearGradient id="paint0_linear_514_9086" x1="50.8129" y1="-0.023655" x2="19.885" y2="59.2159" gradientUnits="userSpaceOnUse">
<stop stop-color="#00FFA3"/>
<stop offset="1" stop-color="#DC1FFF"/>
</linearGradient>
<linearGradient id="paint1_linear_514_9086" x1="37.2896" y1="-7.08387" x2="6.36157" y2="52.1556" gradientUnits="userSpaceOnUse">
<stop stop-color="#00FFA3"/>
<stop offset="1" stop-color="#DC1FFF"/>
</linearGradient>
<linearGradient id="paint2_linear_514_9086" x1="44.0082" y1="-3.57611" x2="13.0802" y2="55.6634" gradientUnits="userSpaceOnUse">
<stop stop-color="#00FFA3"/>
<stop offset="1" stop-color="#DC1FFF"/>
</linearGradient>
</defs>
</svg>
