<svg width="33" height="33" viewBox="0 0 33 33" fill="none" xmlns="http://www.w3.org/2000/svg">
<rect x="0.855957" y="0.325195" width="32" height="32" rx="8" fill="black"/>
<path d="M18.8465 16.8312C18.4739 17.2038 17.8698 17.2038 17.4972 16.8312L16.9238 16.2578L17.4972 15.6843C17.8698 15.3117 18.4739 15.3117 18.8465 15.6843L19.42 16.2578L18.8465 16.8312Z" fill="url(#paint0_linear_37_3349)"/>
<path d="M17.4972 15.6844C17.8698 15.3118 17.8698 14.7077 17.4972 14.3351L16.9238 13.7617L16.3503 14.3351C15.9777 14.7077 15.9777 15.3118 16.3503 15.6844L16.9238 16.2579L17.4972 15.6844Z" fill="url(#paint1_linear_37_3349)"/>
<path d="M17.4972 18.1805C17.8698 17.8079 17.8698 17.2038 17.4972 16.8312L16.9238 16.2578L16.3503 16.8312C15.9777 17.2038 15.9777 17.8079 16.3503 18.1805L16.9238 18.754L17.4972 18.1805Z" fill="url(#paint2_linear_37_3349)"/>
<path d="M16.3499 16.8312C15.9773 17.2038 15.3732 17.2038 15.0006 16.8312L14.4272 16.2578L15.0006 15.6843C15.3732 15.3117 15.9773 15.3117 16.3499 15.6843L16.9234 16.2578L16.3499 16.8312Z" fill="url(#paint3_linear_37_3349)"/>
<path d="M13.9624 22.6192C14.219 22.6964 14.4749 22.7736 14.773 22.8633C15.3348 22.1957 15.7523 21.4386 16.0558 20.6279C16.3557 19.8256 16.5849 18.9966 16.8884 18.041C17.2525 19.8583 17.8356 21.4629 18.9123 22.8644C19.2081 22.7736 19.4652 22.6952 19.7663 22.6031C18.7781 24.3545 17.8172 26.0559 16.8457 27.7781C16.873 27.7781 16.8528 27.7811 16.8338 27.7775C16.8166 27.774 16.7958 27.7675 16.7851 27.7544C16.7595 27.7247 16.734 27.6938 16.7174 27.6588C15.9044 25.933 14.972 24.2731 13.9624 22.6192ZM17.8962 23.3265C17.7264 22.9007 17.5013 22.3994 17.3255 21.881C17.1503 21.3655 17.025 20.834 16.8736 20.2954C16.5066 21.3857 16.1579 22.422 15.8022 23.4797C16.1407 23.801 16.503 24.1454 16.8563 24.481C17.2038 24.0949 17.5191 23.7452 17.8962 23.3265Z" fill="url(#paint4_linear_37_3349)"/>
<path d="M13.0392 10.5654C12.7393 10.8404 12.5398 11.0227 12.3206 11.2234C13.0083 12.9011 14.129 14.2314 15.464 15.431C13.7714 14.8686 12.0587 14.5907 10.2629 14.811C10.1916 15.0961 10.1233 15.3693 10.0508 15.6591C9.027 13.9291 8.02752 12.2413 7.03516 10.5654C8.98365 10.5654 10.9452 10.5654 13.0392 10.5654ZM10.2367 13.6055C11.3918 13.8495 12.4887 14.0812 13.4959 14.2944C12.7951 13.5087 12.0409 12.6636 11.2784 11.8096C10.8324 11.9385 10.3632 12.0739 9.88396 12.2122C10.0045 12.6885 10.1239 13.1595 10.2367 13.6055Z" fill="url(#paint5_linear_37_3349)"/>
<path d="M26.7133 10.6572C25.7126 12.3474 24.7131 14.0358 23.6917 15.7616C23.6246 15.4706 23.5628 15.2057 23.4939 14.9058C21.7165 14.6819 20.0014 14.9485 18.2993 15.521C19.6094 14.3256 20.7283 13.0054 21.448 11.2796C21.2319 11.1175 21.0014 10.9447 20.771 10.7718C20.7918 10.7338 20.812 10.6958 20.8328 10.6578C22.792 10.6572 24.7517 10.6572 26.7133 10.6572ZM22.4754 11.9008C21.6874 12.7803 20.9367 13.6177 20.2478 14.3867C21.2764 14.17 22.384 13.9366 23.5082 13.6996C23.6204 13.2614 23.7416 12.7886 23.8651 12.3058C23.3971 12.1692 22.9286 12.0326 22.4754 11.9008Z" fill="url(#paint6_linear_37_3349)"/>
<path d="M16.8817 4.87109C17.8646 6.61708 18.8201 8.31436 19.8035 10.0621C19.5411 9.99324 19.2762 9.92316 18.9739 9.84359C17.8948 11.2315 17.3128 12.845 16.9144 14.569C16.5165 12.8557 15.938 11.2439 14.8471 9.83587C14.5692 9.9196 14.3114 9.9974 13.9248 10.1144C14.492 9.18498 15.0205 8.37078 15.4956 7.52689C15.979 6.66756 16.4108 5.77912 16.8817 4.87109ZM15.8786 9.26694C16.2267 10.2991 16.5729 11.3277 16.9114 12.3319C17.2535 11.3223 17.6021 10.2926 17.9631 9.22774C17.6341 8.91358 17.2713 8.56676 16.8954 8.20806C16.5266 8.5917 16.1886 8.94387 15.8786 9.26694Z" fill="url(#paint7_linear_37_3349)"/>
<path d="M18.2993 17.2649C19.9889 17.7857 21.6939 18.1302 23.4892 17.8653C23.5581 17.5784 23.621 17.3148 23.6929 17.0137C24.7173 18.743 25.7209 20.4368 26.7133 22.1115C24.7808 22.1115 22.8122 22.1115 20.7253 22.1115C21.005 21.8502 21.1992 21.6684 21.4314 21.4511C20.7467 19.8013 19.6427 18.4663 18.2993 17.2649ZM23.5058 19.0619C22.3834 18.8327 21.2901 18.6088 20.271 18.401C20.9717 19.1878 21.723 20.0323 22.4707 20.8721C22.9274 20.7396 23.3947 20.6042 23.8651 20.4682C23.735 19.9599 23.6145 19.4871 23.5058 19.0619Z" fill="url(#paint8_linear_37_3349)"/>
<path d="M10.0196 17.0127C10.0819 17.2948 10.1371 17.5424 10.2066 17.8578C11.9841 18.1577 13.701 17.7824 15.4214 17.2615C14.0965 18.4499 12.9776 19.7754 12.2531 21.5131C12.4604 21.6787 12.6831 21.8557 13.0056 22.1129C10.9021 22.1129 8.94169 22.1129 6.99854 22.1129C7.98199 20.4524 8.98266 18.7628 10.0196 17.0127ZM10.1977 19.0669C10.0885 19.5111 9.96908 19.9969 9.85031 20.4809C10.3634 20.6258 10.8326 20.7582 11.2388 20.8729C12.009 20.0082 12.7484 19.1791 13.4361 18.4065C12.4117 18.6156 11.3178 18.8383 10.1977 19.0669Z" fill="url(#paint9_linear_37_3349)"/>
<circle cx="16.9237" cy="16.2567" r="3.23815" stroke="#B2A6FF" stroke-opacity="0.5"/>
<defs>
<linearGradient id="paint0_linear_37_3349" x1="18.1482" y1="17.5328" x2="16.8985" y2="16.283" gradientUnits="userSpaceOnUse">
<stop stop-color="#E3B4FF"/>
<stop offset="0.230681" stop-color="#A0A1FF"/>
<stop offset="0.501303" stop-color="#568DFF" stop-opacity="0.45"/>
<stop offset="0.707983" stop-color="#0777FF"/>
<stop offset="1" stop-color="#479AFF"/>
</linearGradient>
<linearGradient id="paint1_linear_37_3349" x1="18.1988" y1="14.9861" x2="16.949" y2="13.7364" gradientUnits="userSpaceOnUse">
<stop stop-color="#E3B4FF"/>
<stop offset="0.230681" stop-color="#A0A1FF"/>
<stop offset="0.501303" stop-color="#568DFF" stop-opacity="0.45"/>
<stop offset="0.707983" stop-color="#0777FF"/>
<stop offset="1" stop-color="#479AFF"/>
</linearGradient>
<linearGradient id="paint2_linear_37_3349" x1="18.1988" y1="17.4822" x2="16.949" y2="16.2325" gradientUnits="userSpaceOnUse">
<stop stop-color="#E3B4FF"/>
<stop offset="0.230681" stop-color="#A0A1FF"/>
<stop offset="0.501303" stop-color="#568DFF" stop-opacity="0.45"/>
<stop offset="0.707983" stop-color="#0777FF"/>
<stop offset="1" stop-color="#479AFF"/>
</linearGradient>
<linearGradient id="paint3_linear_37_3349" x1="15.6517" y1="17.5328" x2="14.4019" y2="16.283" gradientUnits="userSpaceOnUse">
<stop stop-color="#E3B4FF"/>
<stop offset="0.230681" stop-color="#A0A1FF"/>
<stop offset="0.501303" stop-color="#568DFF" stop-opacity="0.45"/>
<stop offset="0.707983" stop-color="#0777FF"/>
<stop offset="1" stop-color="#479AFF"/>
</linearGradient>
<linearGradient id="paint4_linear_37_3349" x1="13.9548" y1="17.8439" x2="19.7663" y2="17.8439" gradientUnits="userSpaceOnUse">
<stop stop-color="#E3B4FF"/>
<stop offset="0.230681" stop-color="#A0A1FF"/>
<stop offset="0.501303" stop-color="#568DFF" stop-opacity="0.45"/>
<stop offset="0.707983" stop-color="#0777FF"/>
<stop offset="1" stop-color="#479AFF"/>
</linearGradient>
<linearGradient id="paint5_linear_37_3349" x1="7.02411" y1="10.4623" x2="15.464" y2="10.4623" gradientUnits="userSpaceOnUse">
<stop stop-color="#E3B4FF"/>
<stop offset="0.230681" stop-color="#A0A1FF"/>
<stop offset="0.501303" stop-color="#568DFF" stop-opacity="0.45"/>
<stop offset="0.707983" stop-color="#0777FF"/>
<stop offset="1" stop-color="#479AFF"/>
</linearGradient>
<linearGradient id="paint6_linear_37_3349" x1="18.2883" y1="10.5539" x2="26.7133" y2="10.5539" gradientUnits="userSpaceOnUse">
<stop stop-color="#E3B4FF"/>
<stop offset="0.230681" stop-color="#A0A1FF"/>
<stop offset="0.501303" stop-color="#568DFF" stop-opacity="0.45"/>
<stop offset="0.707983" stop-color="#0777FF"/>
<stop offset="1" stop-color="#479AFF"/>
</linearGradient>
<linearGradient id="paint7_linear_37_3349" x1="13.9171" y1="4.67478" x2="19.8035" y2="4.67478" gradientUnits="userSpaceOnUse">
<stop stop-color="#E3B4FF"/>
<stop offset="0.230681" stop-color="#A0A1FF"/>
<stop offset="0.501303" stop-color="#568DFF" stop-opacity="0.45"/>
<stop offset="0.707983" stop-color="#0777FF"/>
<stop offset="1" stop-color="#479AFF"/>
</linearGradient>
<linearGradient id="paint8_linear_37_3349" x1="18.2883" y1="16.9105" x2="26.7133" y2="16.9105" gradientUnits="userSpaceOnUse">
<stop stop-color="#E3B4FF"/>
<stop offset="0.230681" stop-color="#A0A1FF"/>
<stop offset="0.501303" stop-color="#568DFF" stop-opacity="0.45"/>
<stop offset="0.707983" stop-color="#0777FF"/>
<stop offset="1" stop-color="#479AFF"/>
</linearGradient>
<linearGradient id="paint9_linear_37_3349" x1="6.9875" y1="16.9095" x2="15.4214" y2="16.9095" gradientUnits="userSpaceOnUse">
<stop stop-color="#E3B4FF"/>
<stop offset="0.230681" stop-color="#A0A1FF"/>
<stop offset="0.501303" stop-color="#568DFF" stop-opacity="0.45"/>
<stop offset="0.707983" stop-color="#0777FF"/>
<stop offset="1" stop-color="#479AFF"/>
</linearGradient>
</defs>
</svg>
