<svg width="56" height="56" viewBox="0 0 56 56" fill="none" xmlns="http://www.w3.org/2000/svg">
<path d="M27.768 55.9817L12.5827 40.7706C7.72759 35.9073 5 29.3111 5 22.433C5 15.5553 7.72759 8.95908 12.5827 4.09566L16.6642 0.00732422L31.8581 15.227C36.7094 20.0912 39.4338 26.6861 39.4322 33.5621C39.4307 40.4377 36.7032 47.0314 31.8495 51.8931L27.768 55.9817Z" fill="url(#paint0_linear_1922_23080)"/>
<path d="M23.6882 15.2282L38.8908 0L42.9722 4.08834C45.3787 6.49678 47.2877 9.35667 48.5903 12.5046C49.8929 15.6526 50.5634 19.0267 50.5634 22.4344C50.5634 25.8421 49.8929 29.2163 48.5903 32.3643C47.2877 35.5121 45.3787 38.3718 42.9722 40.7804L27.7781 56L23.6882 51.9033C18.8331 47.0397 16.1055 40.4435 16.1055 33.5658C16.1055 26.6878 18.8331 20.0916 23.6882 15.2282Z" fill="url(#paint1_linear_1922_23080)"/>
<defs>
<linearGradient id="paint0_linear_1922_23080" x1="39.4465" y1="27.9987" x2="4.99439" y2="27.9987" gradientUnits="userSpaceOnUse">
<stop stop-color="#F9575E"/>
<stop offset="0.27" stop-color="#F8555B"/>
<stop offset="0.49" stop-color="#F44F51"/>
<stop offset="0.68" stop-color="#EE4540"/>
<stop offset="0.87" stop-color="#E63728"/>
<stop offset="1" stop-color="#DE2A13"/>
</linearGradient>
<linearGradient id="paint1_linear_1922_23080" x1="-103322" y1="86628.3" x2="-104246" y2="86401.8" gradientUnits="userSpaceOnUse">
<stop stop-color="#F9575E"/>
<stop offset="0.27" stop-color="#F8555B"/>
<stop offset="0.49" stop-color="#F44F51"/>
<stop offset="0.68" stop-color="#EE4540"/>
<stop offset="0.87" stop-color="#E63728"/>
<stop offset="1" stop-color="#DE2A13"/>
</linearGradient>
</defs>
</svg>
